<?xml version="1.0" standalone="no"?>
<!DOCTYPE svg PUBLIC "-//W3C//DTD SVG 20010904//EN"
 "http://www.w3.org/TR/2001/REC-SVG-20010904/DTD/svg10.dtd">
<svg version="1.0" xmlns="http://www.w3.org/2000/svg"
 width="1205.000000pt" height="1844.000000pt" viewBox="0 0 1205.000000 1844.000000"
 preserveAspectRatio="xMidYMid meet">

<g transform="translate(0.000000,1844.000000) scale(0.100000,-0.100000)"
fill="#000000" stroke="none">
<path d="M5748 18430 c-144 -26 -233 -85 -297 -197 -5 -10 -24 -4 -73 22 -151
81 -351 85 -608 14 -195 -55 -488 -197 -722 -351 -82 -54 -153 -96 -158 -93
-14 9 -336 -13 -454 -30 -289 -43 -505 -131 -627 -255 -67 -69 -102 -136 -125
-239 -9 -42 -18 -77 -19 -79 -1 -2 -83 32 -181 74 -167 71 -185 77 -264 81
-257 14 -644 -140 -1085 -432 -227 -150 -409 -298 -585 -474 -215 -215 -338
-393 -385 -556 -17 -58 -17 -163 1 -262 5 -26 3 -33 -10 -33 -96 0 -145 -145
-146 -425 0 -297 43 -653 151 -1258 l41 -227 -22 -18 c-21 -17 -22 -21 -10
-78 17 -81 51 -173 127 -344 190 -426 660 -1295 1214 -2247 49 -84 89 -157 89
-163 0 -5 -13 -29 -30 -51 -47 -66 -72 -143 -77 -244 -6 -114 13 -199 72 -320
186 -382 672 -590 996 -425 33 16 61 30 64 30 2 0 30 -22 62 -48 438 -363
1012 -674 1588 -862 72 -23 134 -46 138 -50 8 -7 -9 -61 -22 -70 -6 -4 -1423
-1703 -1468 -1761 -11 -14 -3 -23 57 -64 39 -27 70 -50 70 -51 0 -2 -9 -23
-21 -46 -13 -28 -36 -52 -65 -70 -28 -17 -70 -63 -120 -130 -99 -132 -115
-170 -115 -260 l0 -71 -124 -131 c-252 -268 -390 -447 -420 -548 -19 -66 -7
-114 42 -169 l37 -40 -28 -57 c-39 -79 -44 -145 -14 -202 24 -47 83 -90 124
-90 19 0 22 -8 27 -65 11 -114 55 -168 150 -181 l44 -6 6 -63 c18 -188 152
-282 302 -211 59 28 128 80 252 193 l91 83 7 -42 c9 -57 31 -107 58 -137 52
-56 155 -77 223 -45 47 22 113 99 157 181 20 37 36 61 36 53 0 -8 -6 -78 -14
-155 -8 -77 -18 -210 -21 -296 -10 -219 -4 -225 208 -236 l117 -6 15 -51 c26
-90 221 -818 326 -1216 217 -822 405 -1598 441 -1818 14 -85 25 -66 -151 -275
-58 -68 -120 -150 -139 -182 -88 -146 -93 -265 -15 -359 l29 -35 706 0 705 -1
46 29 c46 29 71 59 103 121 17 33 18 95 20 1075 1 653 6 1118 13 1250 18 325
40 581 48 573 6 -7 33 -358 46 -588 7 -143 12 -597 13 -1250 1 -972 2 -1027
19 -1060 33 -63 58 -92 104 -121 l46 -29 702 0 702 0 35 40 c60 70 70 137 37
244 -26 84 -89 177 -234 346 -72 84 -116 144 -116 157 -1 100 206 964 470
1963 117 441 298 1116 311 1156 l10 31 130 6 c141 6 182 19 207 68 14 27 10
148 -14 413 -8 88 -12 161 -10 164 3 2 14 -15 26 -38 29 -57 107 -139 147
-156 45 -19 110 -17 160 5 46 21 98 85 107 132 3 16 9 43 12 60 l6 31 52 -49
c103 -101 219 -193 278 -223 162 -80 293 8 315 211 l6 57 44 6 c93 12 137 66
149 179 6 59 9 67 28 67 41 0 100 43 124 90 29 56 25 114 -14 201 l-27 60 25
27 c66 72 76 138 34 227 -44 94 -186 272 -405 505 -65 69 -135 149 -156 178
l-38 53 24 17 c12 9 28 20 33 24 7 5 -11 51 -51 128 -35 65 -63 121 -63 124 0
3 27 24 60 47 33 23 60 44 60 46 0 1 -369 446 -820 988 -451 542 -829 1004
-841 1028 -12 23 -28 46 -35 50 -22 12 -17 24 14 32 50 12 316 117 462 182
374 166 748 396 1069 657 l74 60 46 -26 c90 -50 147 -63 271 -62 136 0 204 17
335 80 178 86 329 236 411 409 43 90 74 210 74 283 0 106 -49 237 -114 310
l-37 41 696 1403 697 1403 29 150 c104 526 169 1045 169 1340 0 279 -41 414
-130 432 l-31 6 8 51 c4 28 8 99 8 157 0 102 -1 107 -39 184 -72 146 -230 276
-481 396 -107 51 -354 141 -485 175 l-35 10 -6 74 c-17 198 -100 370 -246 511
-231 224 -539 295 -840 194 l-72 -25 -78 54 c-128 88 -309 194 -463 272 -427
215 -740 273 -950 178 -50 -23 -56 -24 -65 -9 -143 240 -288 377 -499 475
-133 62 -220 81 -386 87 -119 4 -162 1 -240 -15 -115 -24 -230 -68 -329 -128
l-75 -45 -110 49 c-290 130 -575 192 -738 162z m-4879 -2105 c235 -522 563
-1028 905 -1394 121 -129 -217 182 -444 409 -300 300 -567 609 -726 841 l-46
67 21 48 c12 26 37 66 56 90 34 41 127 97 153 92 8 -2 44 -70 81 -153z m-115
-1016 l254 -343 -19 -38 c-67 -132 -67 -468 1 -800 12 -61 14 -88 6 -88 -6 0
-63 9 -126 20 -63 11 -150 20 -193 20 -70 0 -78 2 -73 18 29 92 34 449 11 698
-23 246 -101 753 -131 859 -10 33 5 14 270 -346z m4352 -1464 c220 -122 499
-203 775 -226 237 -20 521 18 763 101 112 39 295 124 377 176 49 31 55 30 62
-4 3 -15 24 -55 47 -89 74 -112 219 -182 347 -170 94 8 161 40 259 122 49 41
91 75 94 75 3 0 18 -24 34 -53 16 -28 66 -89 111 -134 215 -213 507 -252 794
-106 57 30 105 52 105 51 133 -238 268 -352 466 -394 79 -17 222 -14 289 6 43
12 51 6 85 -69 36 -80 61 -181 83 -337 25 -178 25 -938 0 -1274 -24 -320 -55
-655 -81 -872 -12 -104 -18 -188 -14 -188 5 0 79 31 165 70 86 38 158 68 160
66 7 -6 -148 -195 -259 -316 -648 -708 -1589 -1218 -2628 -1424 -197 -39 -315
-57 -540 -83 -196 -22 -884 -25 -1080 -5 -686 71 -1273 233 -1835 506 -374
182 -678 377 -988 634 -189 157 -488 467 -608 630 l-31 42 44 -19 c23 -10 85
-37 137 -60 51 -23 96 -40 99 -37 2 3 -5 92 -17 198 -80 729 -106 1168 -98
1677 5 368 15 482 56 655 24 99 71 199 105 221 21 14 29 14 82 0 68 -18 181
-20 256 -4 76 16 205 80 264 133 28 25 79 86 114 136 34 50 68 94 75 96 7 3
41 -11 76 -30 92 -49 158 -66 265 -66 193 0 444 70 738 204 l78 37 42 -20 c91
-44 185 -34 321 35 75 38 209 131 246 170 l22 24 31 -20 c17 -11 67 -41 112
-65z m4461 -641 c-3 -3 -12 -4 -19 -1 -8 3 -5 6 6 6 11 1 17 -2 13 -5z m-84
-11 c-7 -2 -19 -2 -25 0 -7 3 -2 5 12 5 14 0 19 -2 13 -5z m955 -2440 c165
-260 -26 -669 -391 -838 -171 -79 -358 -87 -486 -21 l-34 18 171 171 c212 214
295 310 469 547 36 48 51 59 123 90 55 23 86 43 93 58 6 12 14 22 18 22 4 0
21 -21 37 -47z m-8646 -53 c97 -43 98 -43 160 -129 115 -158 260 -324 429
-493 l168 -166 -44 -21 c-61 -28 -118 -40 -195 -41 -259 0 -547 188 -664 434
-52 109 -66 162 -66 254 0 75 18 149 50 200 19 30 21 32 42 18 13 -8 67 -33
120 -56z m5338 -1977 c0 -61 -10 -81 -42 -92 -17 -6 -35 -11 -39 -11 -5 0 -9
29 -9 64 0 63 1 65 28 69 62 9 62 9 62 -30z m-1862 -17 c2 -3 2 -11 0 -20 -2
-13 -11 -12 -53 9 l-50 25 49 -5 c27 -3 51 -7 54 -9z m-47 -69 l46 -19 7 -107
c3 -59 13 -134 21 -167 30 -116 100 -194 174 -194 41 0 140 26 216 58 l51 20
-3 -316 c-2 -175 -6 -472 -9 -661 l-6 -344 -34 54 c-57 91 -190 357 -243 486
-134 328 -229 702 -266 1048 -17 163 -17 168 -7 163 4 -1 28 -11 53 -21z
m1899 -55 c0 -4 -7 -63 -15 -132 -37 -317 -136 -697 -261 -1004 -77 -188 -306
-617 -321 -602 -5 5 17 1388 22 1394 2 2 44 -13 93 -32 180 -72 247 -72 311 0
51 59 80 144 88 262 6 92 6 93 37 107 37 16 46 17 46 7z m-1094 -213 c12 -20
89 -49 132 -49 45 0 105 21 133 46 16 15 21 13 61 -13 24 -16 65 -42 92 -57
l49 -29 -6 -396 c-4 -218 -10 -560 -14 -760 l-6 -365 -55 -80 c-51 -75 -244
-340 -262 -359 -9 -10 -145 168 -284 370 l-97 142 6 638 c3 351 8 674 11 719
l6 81 56 27 c32 15 77 43 102 61 48 36 65 41 76 24z m-2891 -1489 c3 -6 -1 -7
-9 -4 -18 7 -21 14 -7 14 6 0 13 -4 16 -10z m6256 -251 c34 -68 38 -84 27 -95
-7 -7 -227 -175 -488 -373 -305 -231 -477 -356 -481 -348 -3 7 -14 63 -24 126
-15 97 -16 115 -4 122 8 4 214 152 459 328 245 175 451 320 457 320 7 1 31
-36 54 -80z m-6091 -185 c65 -66 173 -154 189 -154 6 0 52 20 101 45 49 25 92
45 95 45 10 0 36 -61 30 -71 -4 -5 -56 -34 -116 -64 -106 -54 -110 -55 -139
-40 -42 22 -134 97 -212 173 l-68 66 27 28 c15 15 29 28 33 28 3 0 30 -25 60
-56z m6131 -101 c24 -32 89 -107 147 -167 253 -265 412 -475 412 -541 0 -31
-70 -92 -114 -101 l-36 -6 34 -47 c87 -119 110 -205 61 -237 -19 -12 -41 -15
-89 -12 l-64 4 5 -106 c5 -91 3 -108 -11 -123 -21 -21 -81 -22 -154 -3 -50 14
-53 13 -47 -2 4 -9 9 -62 12 -117 5 -111 -8 -151 -58 -188 -54 -39 -121 1
-351 210 -73 67 -171 164 -217 217 -116 132 -122 129 -65 -29 45 -126 55 -241
27 -295 -21 -40 -64 -65 -98 -56 -78 20 -179 210 -270 512 -36 118 -91 423
-82 448 4 11 301 240 867 668 19 15 38 27 42 27 4 1 26 -25 49 -56z m-6490
-192 c84 -57 110 -81 126 -114 28 -57 102 -138 163 -177 58 -37 156 -70 208
-70 29 0 64 -18 172 -89 74 -50 147 -93 163 -97 31 -7 32 -10 13 -101 -37
-173 -155 -510 -221 -629 -35 -63 -104 -134 -129 -134 -32 0 -67 21 -87 52
-32 51 -22 173 25 303 57 158 52 160 -71 24 -104 -115 -302 -301 -392 -368
-110 -84 -172 -87 -212 -9 -21 41 -26 161 -9 233 5 22 8 41 6 42 -1 1 -24 -4
-51 -12 -66 -20 -129 -19 -151 2 -14 15 -16 32 -12 123 l5 106 -63 -4 c-82 -5
-114 12 -114 64 0 46 21 94 75 169 l44 63 -35 6 c-20 4 -53 23 -76 44 -35 32
-39 40 -34 70 12 75 167 274 420 540 l79 83 26 -24 c14 -13 74 -57 132 -96z"/>
<path d="M4074 12726 c-152 -66 -16 -281 289 -458 262 -153 587 -182 660 -59
83 140 -127 338 -485 456 -216 71 -389 93 -464 61z"/>
<path d="M7785 12694 c-92 -16 -222 -55 -310 -91 -147 -62 -294 -173 -336
-255 -40 -78 -16 -153 61 -191 68 -33 231 -30 355 7 237 71 512 250 568 368
37 78 6 144 -79 167 -52 14 -161 12 -259 -5z"/>
<path d="M3273 11904 c-3 -9 -3 -113 0 -232 7 -292 32 -406 130 -594 141 -273
393 -474 695 -555 87 -24 115 -27 277 -27 165 0 188 2 280 27 401 109 712 434
799 840 l6 27 578 0 577 0 22 -86 c76 -294 293 -558 573 -699 359 -181 801
-148 1125 84 134 95 279 263 348 402 94 190 117 311 117 610 l0 219 -1100 0
-1100 0 0 -50 0 -50 -560 0 -560 0 0 50 0 50 -1100 0 c-998 0 -1101 -1 -1107
-16z m875 -164 c-1 -5 -100 -190 -218 -410 l-215 -401 -48 52 c-32 34 -46 57
-42 68 3 9 88 170 188 358 l182 342 78 1 c46 0 77 -4 75 -10z m528 -52 c-19
-35 -145 -270 -281 -523 -135 -253 -250 -464 -255 -469 -6 -6 -26 -4 -52 3
-65 20 -188 78 -188 90 0 9 323 618 472 889 l39 72 150 0 149 0 -34 -62z
m2766 -10 c-22 -40 -120 -221 -217 -403 -97 -181 -180 -333 -184 -338 -9 -9
-91 85 -91 104 0 7 84 169 186 361 l186 348 80 0 79 0 -39 -72z m586 63 c-1
-5 -129 -244 -283 -531 l-279 -522 -32 5 c-41 7 -216 88 -212 98 2 4 118 222
258 483 l255 476 148 0 c83 0 147 -4 145 -9z"/>
<path d="M6263 10128 c-4 -7 -13 -22 -18 -33 -6 -11 -30 -30 -55 -42 -36 -19
-61 -23 -136 -23 -112 0 -173 17 -224 64 -45 41 -71 45 -100 16 -16 -16 -18
-24 -9 -47 16 -42 66 -89 123 -115 46 -20 66 -23 196 -23 136 0 149 2 201 26
96 45 139 112 105 164 -18 27 -69 35 -83 13z"/>
<path d="M6104 7986 c-92 -40 -109 -166 -33 -231 57 -47 151 -27 183 39 53
113 -44 238 -150 192z"/>
<path d="M6104 7290 c-31 -12 -72 -66 -79 -103 -15 -80 47 -157 127 -157 30 0
47 8 75 33 31 29 37 41 40 88 5 66 -20 113 -72 135 -38 16 -60 17 -91 4z"/>
</g>
</svg>
